<svg width="28" height="33" viewBox="0 0 28 33" fill="none" xmlns="http://www.w3.org/2000/svg">
    <path d="M8.0396 10.5386C8.0396 10.5386 4.65698 11.8193 4.46906 11.6059C4.28113 11.3924 4.35784 9.6847 4.88326 8.40392C5.40867 7.12314 5.86123 6.26928 6.95042 5.20196C8.0396 4.13464 9.01757 3.49425 10.1068 2.85386C11.196 2.21346 12.964 2 13.8652 2C14.7665 2 16.197 2.21346 17.0983 2.64039C17.9995 3.06732 19.7292 4.13464 20.4425 4.9885C21.1559 5.84235 22.0226 6.69621 22.5481 8.40392C23.0735 10.1116 22.8856 11.6059 22.8856 11.6059L19.1654 10.3251L16.3466 12.4597L13.5277 11.179L10.8968 12.4597L8.0396 10.5386Z" fill="#3463DB" stroke="#3463DB" stroke-width="3.5" stroke-linejoin="round"/>
    <path d="M5.23935 20.1747C5.23935 20.1747 2.57687 18.7827 2.22187 18.4734C1.86688 18.1641 2.04437 23.2679 2.04437 23.2679C2.04437 23.2679 2.04437 25.4332 3.64186 27.1345C5.23935 28.8357 6.12684 29.4544 8.07932 30.2277C10.0318 31.001 12.6943 31.001 13.9368 31.001C15.1793 31.001 17.8417 30.537 19.2617 30.073C20.6817 29.6091 22.8117 28.5264 23.8767 27.2891C24.9417 26.0518 25.2967 24.5928 25.2967 23.2679V22.2485V18.1641L22.2792 19.8653L18.1967 18.1641L13.9368 20.02L9.32182 18.1641L5.23935 20.1747Z" fill="#3463DB" stroke="#3463DB" stroke-width="3.5" stroke-linejoin="round"/>
</svg>
