<svg width="79" height="109" viewBox="0 0 79 109" fill="none" xmlns="http://www.w3.org/2000/svg">
<path d="M69.125 39.721C69.125 23.268 55.8614 9.93025 39.5 9.93025C23.1386 9.93025 9.875 23.268 9.875 39.721C9.875 48.7611 13.7424 64.5668 20.425 78.1959C23.7243 84.9245 27.4198 90.5065 31.1294 94.2598C34.9194 98.0943 37.7411 99.0698 39.5 99.0698V109L38.4826 108.966C17.8152 107.576 1.09387 64.205 0.0530396 41.8496L0 39.721C1.63027e-06 17.7837 17.6848 0 39.5 0L41.5348 0.0533363C62.4044 1.1183 79 18.47 79 39.721L78.947 41.8496C77.8891 64.5708 60.6336 109 39.5 109V99.0698C41.2589 99.0698 44.0806 98.0943 47.8706 94.2598C51.5802 90.5065 55.2757 84.9245 58.575 78.1959C65.2576 64.5668 69.125 48.7611 69.125 39.721Z" fill="#3463DB"/>
<path d="M55.0467 38C55.0467 29.6908 48.3091 22.9538 40 22.9533C31.6905 22.9533 24.9533 29.6905 24.9533 38C24.9538 46.3091 31.6908 53.0467 40 53.0467V63L38.7121 62.966C25.9305 62.3178 15.6831 52.0693 15.034 39.2879L15 38C15 24.1934 26.1934 13 40 13L41.2879 13.034C54.4955 13.7048 65 24.6257 65 38L64.966 39.2879C64.2953 52.4953 53.374 62.9995 40 63V53.0467C48.3088 53.0462 55.0462 46.3088 55.0467 38Z" fill="#B2C7FF"/>
</svg>
