<svg width="124" height="124" viewBox="0 0 124 124" fill="none" xmlns="http://www.w3.org/2000/svg">
<path d="M123.758 112.158C123.758 118.153 118.869 123.012 112.838 123.012H10.9198C4.88896 123.012 1.46568e-07 118.153 0 112.158V28.944H123.758V112.158ZM18.1996 79.596C16.1894 79.596 14.5597 81.2159 14.5597 83.214V97.686C14.5597 99.6842 16.1894 101.304 18.1996 101.304H32.7594C34.7696 101.304 36.3993 99.6842 36.3993 97.686V83.214C36.3993 81.2159 34.7696 79.596 32.7594 79.596H18.1996ZM54.5989 79.596C52.5887 79.596 50.959 81.2159 50.959 83.214V97.686C50.959 99.6842 52.5887 101.304 54.5989 101.304H69.1586C71.1689 101.304 72.7986 99.6842 72.7986 97.686V83.214C72.7986 81.2159 71.1689 79.596 69.1586 79.596H54.5989ZM90.9982 79.596C88.9879 79.596 87.3583 81.2159 87.3583 83.214V97.686C87.3583 99.6842 88.9879 101.304 90.9982 101.304H105.558C107.568 101.304 109.198 99.6842 109.198 97.686V83.214C109.198 81.2159 107.568 79.596 105.558 79.596H90.9982ZM18.1996 47.034C16.1894 47.034 14.5597 48.6539 14.5597 50.652V65.124C14.5597 67.1222 16.1894 68.742 18.1996 68.742H32.7594C34.7696 68.742 36.3993 67.1222 36.3993 65.124V50.652C36.3993 48.6539 34.7696 47.034 32.7594 47.034H18.1996ZM54.5989 47.034C52.5887 47.034 50.959 48.6539 50.959 50.652V65.124C50.959 67.1222 52.5887 68.742 54.5989 68.742H69.1586C71.1689 68.742 72.7986 67.1222 72.7986 65.124V50.652C72.7986 48.6539 71.1689 47.034 69.1586 47.034H54.5989ZM90.9982 47.034C88.9879 47.034 87.3583 48.6539 87.3583 50.652V65.124C87.3583 67.1222 88.9879 68.742 90.9982 68.742H105.558C107.568 68.742 109.198 67.1222 109.198 65.124V50.652C109.198 48.6539 107.568 47.034 105.558 47.034H90.9982ZM112.838 0C118.869 1.63164e-06 123.758 4.8595 123.758 10.854V21.708H0V10.854C1.64156e-06 4.8595 4.88896 1.45682e-07 10.9198 0H112.838Z" fill="#3866DC"/>
</svg>
