<svg width="124" height="124" viewBox="0 0 124 124" fill="none" xmlns="http://www.w3.org/2000/svg">
<path d="M112.158 0C118.153 1.63164e-06 123.012 4.8595 123.012 10.854V112.158C123.012 118.153 118.153 123.012 112.158 123.012H10.854C4.8595 123.012 1.45685e-07 118.153 0 112.158V10.854C1.63167e-06 4.8595 4.8595 1.45682e-07 10.854 0H112.158ZM21.708 83.214C17.7117 83.214 14.472 86.4537 14.472 90.45C14.472 94.4464 17.7117 97.686 21.708 97.686H101.304C105.3 97.686 108.54 94.4464 108.54 90.45C108.54 86.4537 105.3 83.214 101.304 83.214H21.708ZM21.708 54.27C17.7117 54.27 14.472 57.5097 14.472 61.506C14.472 65.5024 17.7117 68.742 21.708 68.742H101.304C105.3 68.742 108.54 65.5024 108.54 61.506C108.54 57.5097 105.3 54.27 101.304 54.27H21.708ZM21.708 25.326C17.7117 25.326 14.472 28.5657 14.472 32.562C14.472 36.5583 17.7117 39.798 21.708 39.798H101.304C105.3 39.798 108.54 36.5583 108.54 32.562C108.54 28.5657 105.3 25.326 101.304 25.326H21.708Z" fill="#E7E7E7"/>
</svg>
