<svg width="124" height="154" viewBox="0 0 124 154" fill="none" xmlns="http://www.w3.org/2000/svg">
<path d="M61.506 0C95.4749 0 123.012 45.732 123.012 84.1026C123.012 122.473 95.4749 153.579 61.506 153.579C27.5372 153.579 0 122.473 0 84.1026C0 45.732 27.5372 0 61.506 0ZM33.0708 26.4428C31.5359 25.15 29.2516 25.3595 27.9724 26.9105C24.7447 30.8251 20.0505 37.8722 16.1503 46.5757C12.2522 55.2746 9.04502 65.8596 9.045 76.7893C9.045 78.8088 10.6648 80.446 12.663 80.446C14.6612 80.446 16.281 78.8088 16.281 76.7893C16.281 67.2419 19.1039 57.7146 22.7432 49.5931C26.3804 41.4767 30.7314 34.9943 33.5336 31.5956C34.8128 30.0443 34.6056 27.7357 33.0708 26.4428ZM41.607 14.6265C38.6098 14.6265 36.18 17.0822 36.18 20.1115C36.18 23.1407 38.6098 25.5964 41.607 25.5964C44.6043 25.5964 47.034 23.1407 47.034 20.1115C47.034 17.0822 44.6043 14.6265 41.607 14.6265Z" fill="#E7E7E7"/>
</svg>
