<svg width="168" height="81" viewBox="0 0 168 81" fill="none" xmlns="http://www.w3.org/2000/svg">
<path d="M25.3479 7.31972C25.3479 3.27715 28.5745 0 32.5547 0H39.7614C43.7416 0 46.9682 3.27715 46.9682 7.31973V73.1973C46.9682 77.2398 43.7416 80.517 39.7614 80.517H32.5547C28.5745 80.517 25.3479 77.2398 25.3479 73.1973V7.31972Z" fill="#E7E7E7"/>
<path d="M141.65 7.31972C141.65 3.27715 138.312 0 134.195 0H126.74C122.622 0 119.284 3.27715 119.284 7.31973V73.1973C119.284 77.2398 122.622 80.517 126.74 80.517H134.195C138.312 80.517 141.65 77.2398 141.65 73.1973V7.31972Z" fill="#E7E7E7"/>
<path d="M0 25.845C0 21.8648 3.33784 18.6382 7.45528 18.6382H14.9106C19.028 18.6382 22.3658 21.8648 22.3658 25.845V54.672C22.3658 58.6522 19.028 61.8788 14.9106 61.8788H7.45528C3.33784 61.8788 0 58.6522 0 54.672V25.845Z" fill="#E7E7E7"/>
<path d="M167.744 25.845C167.744 21.8648 164.406 18.6382 160.288 18.6382H152.833C148.716 18.6382 145.378 21.8648 145.378 25.845V54.672C145.378 58.6522 148.716 61.8788 152.833 61.8788H160.288C164.406 61.8788 167.744 58.6522 167.744 54.672V25.845Z" fill="#E7E7E7"/>
<path d="M51.4414 36.5307C51.4414 32.4133 54.668 29.0754 58.6482 29.0754H109.096C113.076 29.0754 116.302 32.4133 116.302 36.5307V43.986C116.302 48.1034 113.076 51.4413 109.096 51.4413H58.6482C54.668 51.4413 51.4414 48.1034 51.4414 43.986V36.5307Z" fill="#E7E7E7"/>
</svg>
