<svg width="67" height="67" viewBox="0 0 67 67" fill="none" xmlns="http://www.w3.org/2000/svg">
<circle cx="33.5" cy="33.5" r="33.5" fill="#656565"/>
<path d="M24.1251 30.5102C24.1251 30.5102 18.4698 32.8367 18.1556 32.449C17.8414 32.0612 17.9697 28.9592 18.8481 26.6327C19.7265 24.3061 20.4831 22.7551 22.3041 20.8163C24.1251 18.8775 25.7601 17.7143 27.581 16.551C29.402 15.3878 32.3579 15 33.8647 15C35.3715 15 37.7631 15.3878 39.2699 16.1633C40.7767 16.9388 43.6684 18.8775 44.861 20.4286C46.0536 21.9796 47.5027 23.5306 48.3811 26.6327C49.2595 29.7347 48.9454 32.449 48.9454 32.449L42.7259 30.1224L38.0131 34L33.3004 31.6735L28.9019 34L24.1251 30.5102Z" fill="#909090" stroke="#909090" stroke-width="3.5" stroke-linejoin="round"/>
<path d="M20.8032 41.948C20.8032 41.948 16.8554 39.8841 16.329 39.4254C15.8026 38.9668 16.0658 46.5346 16.0658 46.5346C16.0658 46.5346 16.0658 49.7451 18.4345 52.2677C20.8032 54.7903 22.1191 55.7076 25.0142 56.8542C27.9092 58.0009 31.857 58.0009 33.6993 58.0009C35.5417 58.0009 39.4895 57.3129 41.595 56.6249C43.7005 55.9369 46.8587 54.3316 48.4378 52.497C50.0169 50.6624 50.5433 48.4991 50.5433 46.5346V45.0231V38.9668L46.0691 41.4894L40.0158 38.9668L33.6993 41.7187L26.8565 38.9668L20.8032 41.948Z" fill="#909090" stroke="#909090" stroke-width="3.5" stroke-linejoin="round"/>
<ellipse cx="37" cy="18.5" rx="6" ry="7.5" fill="white"/>
<ellipse cx="40" cy="18.5" rx="3" ry="3.5" fill="black"/>
<ellipse cx="28" cy="18.5" rx="6" ry="7.5" fill="white"/>
<ellipse cx="31" cy="18.5" rx="3" ry="3.5" fill="black"/>
</svg>
